# xmcd
#
# Track frame offsets:
#	150
#	18188
#	33821
#	45854
#	64515
#	81737
#	96242
#	116564
#	137639
#	152433
#	168362
#	185918
#
# Disc length: 2694 seconds
# Revision: 0
# Processed by: cddbd v1.5.2PL0 Copyright (c) Steve Scherf et al.
# Submitted via: dBpowerAMP V12.0
#
DISCID=910a840c
DTITLE=Angela Easterling - Common Law Wife
DYEAR=2015
DGENRE=Singer/Songwriter
TTITLE0=Hammer
TTITLE1=Throwing Strikes
TTITLE2=Common Law Wife
TTITLE3=Aching Heart
TTITLE4=Isaac Woodard's Eyes
TTITLE5=The Mountain
TTITLE6=Arkansas Murder Ballad
TTITLE7=Little Lights
TTITLE8=Lay My Head
TTITLE9=Table Rock
TTITLE10=The Flame
TTITLE11=I'm Alright
EXTD=
EXTT0=
EXTT1=
EXTT2=
EXTT3=
EXTT4=
EXTT5=
EXTT6=
EXTT7=
EXTT8=
EXTT9=
EXTT10=
EXTT11=
PLAYORDER=
